<?xml version="1.0" encoding="UTF-8" standalone="no"?>
<svg
   viewBox="0 0 152.7 100.69"
   version="1.1"
   id="svg5165"
   sodipodi:docname="logo.svg"
   inkscape:version="1.2.1 (9c6d41e4, 2022-07-14)"
   xmlns:inkscape="http://www.inkscape.org/namespaces/inkscape"
   xmlns:sodipodi="http://sodipodi.sourceforge.net/DTD/sodipodi-0.dtd"
   xmlns="http://www.w3.org/2000/svg"
   xmlns:svg="http://www.w3.org/2000/svg">
  <defs
     id="defs5169" />
  <sodipodi:namedview
     id="namedview5167"
     pagecolor="#ffffff"
     bordercolor="#000000"
     borderopacity="0.25"
     inkscape:showpageshadow="2"
     inkscape:pageopacity="0.0"
     inkscape:pagecheckerboard="0"
     inkscape:deskcolor="#d1d1d1"
     showgrid="false"
     inkscape:zoom="4.3183207"
     inkscape:cx="41.914441"
     inkscape:cy="36.935654"
     inkscape:window-width="1879"
     inkscape:window-height="1205"
     inkscape:window-x="347"
     inkscape:window-y="25"
     inkscape:window-maximized="0"
     inkscape:current-layer="svg5165" />
  <path
     d="M1.96 0C.88 0 0 .85 0 1.88v88.3c0 1 .88 1.86 1.94 1.86h26.1v-1.65H1.96c-.15 0-.25-.1-.25-.23V1.87c0-.14.1-.22.24-.22h148.8c.15 0 .24.08.24.23v88.3c0 .13-.1.22-.24.22h-27.4v1.64h27.4c1.07 0 1.95-.86 1.95-1.88V1.87c0-1.02-.88-1.87-1.94-1.87H1.96z"
     white-space="normal"
     style="text-decoration-color:#000000;isolation:auto;mix-blend-mode:normal;text-indent:0;block-progression:tb;text-decoration-line:none;text-transform:none;text-decoration-style:solid"
     color="#000"
     solid-color="#000000"
     id="path5161" />
  <text
     xml:space="preserve"
     style="font-size:13.3333px;font-family:Georgia;-inkscape-font-specification:Georgia;text-align:center;text-anchor:middle;white-space:pre;inline-size:329.931;fill:#000000;stroke-width:0.999999"
     x="42.377575"
     y="63.317089"
     id="text2968"
     transform="translate(34.04101,31.956867)"><tspan
       x="42.377575"
       y="63.317089"
       id="tspan11569"><tspan
         style="font-family:'Bangla MN';-inkscape-font-specification:'Bangla MN'"
         id="tspan11567">DEEP Team</tspan></tspan></text>
  <text
     xml:space="preserve"
     style="font-size:13.3333px;font-family:'Bangla MN';-inkscape-font-specification:'Bangla MN';text-align:center;text-anchor:middle;fill:#000000"
     x="75.723877"
     y="41.219727"
     id="text11550"><tspan
       sodipodi:role="line"
       id="tspan11548"
       x="75.723885"
       y="41.219727">全新的logo</tspan><tspan
       sodipodi:role="line"
       x="75.723877"
       y="58.48531"
       id="tspan11554">将迫不及待与你相见</tspan></text>
</svg>
